<svg width="19" height="22" viewBox="0 0 19 22" fill="none" xmlns="http://www.w3.org/2000/svg">
<path d="M19 8.90625V5.21652C18.9576 5.21652 18.9576 5.21652 18.9576 5.21652C17.9397 5.21652 16.9643 4.91964 16.1585 4.3683C14.971 3.60491 14.1228 2.375 13.8683 0.975446C13.7835 0.678571 13.7835 0.381696 13.7835 0.0848214C13.7835 0.0424107 13.7835 0.0424107 13.7835 0H10.0513V14.8437C10.0513 16.5826 8.60938 18.0246 6.87054 18.0246C5.1317 18.0246 3.68973 16.5826 3.68973 14.8437C3.68973 13.1049 5.1317 11.6629 6.87054 11.6629C7.20982 11.6629 7.5067 11.7054 7.84598 11.8326V8.01562C7.5067 7.97321 7.20982 7.9308 6.87054 7.9308C3.05357 7.9308 0 11.0268 0 14.8437C0 18.6607 3.05357 21.7143 6.87054 21.7143C10.6875 21.7143 13.7835 18.6607 13.7835 14.8437V7.25223C15.2254 8.3125 17.0067 8.90625 18.9576 8.90625H19Z" fill="black"/>
</svg>
