<svg width="24" height="20" viewBox="0 0 24 20" fill="none" xmlns="http://www.w3.org/2000/svg">
<path d="M21.5577 4.7653C22.4971 4.07132 23.3425 3.23855 24 2.26699C23.1546 2.63711 22.1683 2.9147 21.182 3.00723C22.2153 2.40578 22.9667 1.48048 23.3425 0.323855C22.4031 0.879036 21.3229 1.29542 20.2427 1.52675C19.3033 0.555181 18.0352 0 16.6262 0C13.9022 0 11.6947 2.17446 11.6947 4.85783C11.6947 5.22795 11.7417 5.59807 11.8356 5.96819C7.74951 5.73687 4.08611 3.79373 1.64384 0.879036C1.22114 1.57301 0.986301 2.40578 0.986301 3.33108C0.986301 4.99663 1.8317 6.47711 3.19374 7.35614C2.3953 7.30988 1.59687 7.12482 0.939335 6.7547V6.80096C0.939335 9.16048 2.63014 11.1036 4.88454 11.5663C4.50881 11.6588 4.03914 11.7513 3.61644 11.7513C3.28767 11.7513 3.00587 11.7051 2.6771 11.6588C3.28767 13.6019 5.11937 14.9899 7.27984 15.0361C5.58904 16.3316 3.47554 17.1181 1.17417 17.1181C0.751468 17.1181 0.375734 17.0718 0 17.0255C2.16047 18.4135 4.74364 19.2 7.56164 19.2C16.6262 19.2 21.5577 11.8439 21.5577 5.41301C21.5577 5.18169 21.5577 4.99663 21.5577 4.7653Z" fill="black"/>
</svg>
