<svg width="27" height="19" viewBox="0 0 27 19" fill="none" xmlns="http://www.w3.org/2000/svg">
<path d="M26.0859 2.89945C25.8007 1.75868 24.8976 0.855576 23.8043 0.570384C21.7605 0 13.68 0 13.68 0C13.68 0 5.55204 0 3.50817 0.570384C2.41493 0.855576 1.51183 1.75868 1.22663 2.89945C0.65625 4.89579 0.65625 9.17367 0.65625 9.17367C0.65625 9.17367 0.65625 13.404 1.22663 15.4479C1.51183 16.5887 2.41493 17.4442 3.50817 17.7294C5.55204 18.2523 13.68 18.2523 13.68 18.2523C13.68 18.2523 21.7605 18.2523 23.8043 17.7294C24.8976 17.4442 25.8007 16.5887 26.0859 15.4479C26.6562 13.404 26.6562 9.17367 26.6562 9.17367C26.6562 9.17367 26.6562 4.89579 26.0859 2.89945ZM11.0182 13.0238V5.32358L17.7678 9.17367L11.0182 13.0238Z" fill="black"/>
</svg>
